<svg xmlns="http://www.w3.org/2000/svg" width="950" height="600" viewBox="0 0 950 600">
<rect width="100%" height="100%" fill="#FFFFFF"/>
<text x="40.0" y="36.0" font-size="21" font-family="Arial" font-weight="bold" fill="#172B4D">Merchant volume and late-delivery rate (minimum 30 orders)</text>
<line x1="90" y1="525.0" x2="910" y2="525.0" stroke="#E4E7EB"/>
<text x="78.0" y="530.0" text-anchor="end" font-size="12" font-family="Arial" fill="#52606D">0%</text>
<line x1="90" y1="436.0" x2="910" y2="436.0" stroke="#E4E7EB"/>
<text x="78.0" y="441.0" text-anchor="end" font-size="12" font-family="Arial" fill="#52606D">20%</text>
<line x1="90" y1="347.0" x2="910" y2="347.0" stroke="#E4E7EB"/>
<text x="78.0" y="352.0" text-anchor="end" font-size="12" font-family="Arial" fill="#52606D">40%</text>
<line x1="90" y1="258.0" x2="910" y2="258.0" stroke="#E4E7EB"/>
<text x="78.0" y="263.0" text-anchor="end" font-size="12" font-family="Arial" fill="#52606D">60%</text>
<line x1="90" y1="169.0" x2="910" y2="169.0" stroke="#E4E7EB"/>
<text x="78.0" y="174.0" text-anchor="end" font-size="12" font-family="Arial" fill="#52606D">80%</text>
<line x1="90" y1="80.0" x2="910" y2="80.0" stroke="#E4E7EB"/>
<text x="78.0" y="85.0" text-anchor="end" font-size="12" font-family="Arial" fill="#52606D">100%</text>
<line x1="90" y1="494.5" x2="910" y2="494.5" stroke="#333333" stroke-width="2" stroke-dasharray="8 6"/>
<text x="905.0" y="486.5" text-anchor="end" font-size="12" font-family="Arial" fill="#333333">Overall 6.9%</text>
<circle cx="109.1" cy="363.2" r="4" fill="#C53D43" fill-opacity="0.65"/>
<circle cx="162.2" cy="380.1" r="4" fill="#C53D43" fill-opacity="0.65"/>
<circle cx="265.6" cy="389.0" r="4" fill="#C53D43" fill-opacity="0.65"/>
<circle cx="171.3" cy="396.4" r="4" fill="#C53D43" fill-opacity="0.65"/>
<circle cx="147.7" cy="402.6" r="4" fill="#C53D43" fill-opacity="0.65"/>
<circle cx="238.8" cy="419.0" r="4" fill="#C53D43" fill-opacity="0.65"/>
<circle cx="317.0" cy="424.5" r="4" fill="#C53D43" fill-opacity="0.65"/>
<circle cx="147.7" cy="424.9" r="4" fill="#C53D43" fill-opacity="0.65"/>
<circle cx="279.1" cy="432.5" r="4" fill="#C53D43" fill-opacity="0.65"/>
<circle cx="115.1" cy="433.4" r="4" fill="#C53D43" fill-opacity="0.65"/>
<circle cx="115.1" cy="433.4" r="4" fill="#C53D43" fill-opacity="0.65"/>
<circle cx="90.0" cy="436.0" r="4" fill="#C53D43" fill-opacity="0.65"/>
<circle cx="268.4" cy="439.7" r="4" fill="#C53D43" fill-opacity="0.65"/>
<circle cx="603.5" cy="440.1" r="4" fill="#C53D43" fill-opacity="0.65"/>
<circle cx="184.3" cy="441.6" r="4" fill="#C53D43" fill-opacity="0.65"/>
<circle cx="162.2" cy="442.2" r="4" fill="#C53D43" fill-opacity="0.65"/>
<circle cx="496.0" cy="442.7" r="4" fill="#C53D43" fill-opacity="0.65"/>
<circle cx="192.5" cy="444.9" r="4" fill="#C53D43" fill-opacity="0.65"/>
<circle cx="171.3" cy="445.9" r="4" fill="#C53D43" fill-opacity="0.65"/>
<circle cx="235.6" cy="446.0" r="4" fill="#C53D43" fill-opacity="0.65"/>
<circle cx="257.1" cy="447.6" r="4" fill="#C53D43" fill-opacity="0.65"/>
<circle cx="175.7" cy="447.6" r="4" fill="#C53D43" fill-opacity="0.65"/>
<circle cx="242.0" cy="448.5" r="4" fill="#C53D43" fill-opacity="0.65"/>
<circle cx="120.9" cy="448.7" r="4" fill="#C53D43" fill-opacity="0.65"/>
<circle cx="120.9" cy="448.7" r="4" fill="#C53D43" fill-opacity="0.65"/>
<circle cx="343.2" cy="449.4" r="4" fill="#C53D43" fill-opacity="0.65"/>
<circle cx="279.1" cy="449.9" r="4" fill="#C53D43" fill-opacity="0.65"/>
<circle cx="126.6" cy="450.8" r="4" fill="#C53D43" fill-opacity="0.65"/>
<circle cx="126.6" cy="450.8" r="4" fill="#C53D43" fill-opacity="0.65"/>
<circle cx="188.4" cy="452.3" r="4" fill="#C53D43" fill-opacity="0.65"/>
<circle cx="192.5" cy="453.8" r="4" fill="#C53D43" fill-opacity="0.65"/>
<circle cx="483.2" cy="454.0" r="4" fill="#C53D43" fill-opacity="0.65"/>
<circle cx="166.8" cy="454.2" r="4" fill="#C53D43" fill-opacity="0.65"/>
<circle cx="218.8" cy="454.7" r="4" fill="#C53D43" fill-opacity="0.65"/>
<circle cx="371.4" cy="455.7" r="4" fill="#C53D43" fill-opacity="0.65"/>
<circle cx="373.0" cy="456.3" r="4" fill="#C53D43" fill-opacity="0.65"/>
<circle cx="142.6" cy="456.5" r="4" fill="#C53D43" fill-opacity="0.65"/>
<circle cx="147.7" cy="458.2" r="4" fill="#C53D43" fill-opacity="0.65"/>
<circle cx="291.7" cy="459.9" r="4" fill="#C53D43" fill-opacity="0.65"/>
<circle cx="291.7" cy="459.9" r="4" fill="#C53D43" fill-opacity="0.65"/>
<circle cx="276.5" cy="460.6" r="4" fill="#C53D43" fill-opacity="0.65"/>
<circle cx="585.7" cy="461.1" r="4" fill="#C53D43" fill-opacity="0.65"/>
<circle cx="296.5" cy="461.4" r="4" fill="#C53D43" fill-opacity="0.65"/>
<circle cx="279.1" cy="461.4" r="4" fill="#C53D43" fill-opacity="0.65"/>
<circle cx="188.4" cy="461.4" r="4" fill="#C53D43" fill-opacity="0.65"/>
<circle cx="483.2" cy="462.3" r="4" fill="#C53D43" fill-opacity="0.65"/>
<circle cx="357.8" cy="462.5" r="4" fill="#C53D43" fill-opacity="0.65"/>
<circle cx="301.3" cy="462.9" r="4" fill="#C53D43" fill-opacity="0.65"/>
<circle cx="399.0" cy="464.6" r="4" fill="#C53D43" fill-opacity="0.65"/>
<circle cx="400.4" cy="465.0" r="4" fill="#C53D43" fill-opacity="0.65"/>
<circle cx="251.2" cy="465.2" r="4" fill="#C53D43" fill-opacity="0.65"/>
<circle cx="310.4" cy="465.7" r="4" fill="#C53D43" fill-opacity="0.65"/>
<circle cx="357.8" cy="466.4" r="4" fill="#C53D43" fill-opacity="0.65"/>
<circle cx="549.2" cy="467.9" r="4" fill="#C53D43" fill-opacity="0.65"/>
<circle cx="377.9" cy="468.5" r="4" fill="#C53D43" fill-opacity="0.65"/>
<circle cx="414.2" cy="469.0" r="4" fill="#C53D43" fill-opacity="0.65"/>
<circle cx="327.5" cy="470.5" r="4" fill="#C53D43" fill-opacity="0.65"/>
<circle cx="329.5" cy="471.1" r="4" fill="#C53D43" fill-opacity="0.65"/>
<circle cx="361.3" cy="471.3" r="4" fill="#C53D43" fill-opacity="0.65"/>
<circle cx="481.3" cy="472.3" r="4" fill="#C53D43" fill-opacity="0.65"/>
<circle cx="418.1" cy="473.0" r="4" fill="#C53D43" fill-opacity="0.65"/>
<circle cx="672.8" cy="473.0" r="4" fill="#C53D43" fill-opacity="0.65"/>
<circle cx="407.4" cy="473.2" r="4" fill="#C53D43" fill-opacity="0.65"/>
<circle cx="596.7" cy="474.0" r="4" fill="#C53D43" fill-opacity="0.65"/>
<circle cx="373.0" cy="474.3" r="4" fill="#C53D43" fill-opacity="0.65"/>
<circle cx="454.9" cy="474.5" r="4" fill="#C53D43" fill-opacity="0.65"/>
<circle cx="490.6" cy="474.7" r="4" fill="#C53D43" fill-opacity="0.65"/>
<circle cx="420.7" cy="476.5" r="4" fill="#C53D43" fill-opacity="0.65"/>
<circle cx="422.0" cy="476.8" r="4" fill="#C53D43" fill-opacity="0.65"/>
<circle cx="550.6" cy="477.2" r="4" fill="#C53D43" fill-opacity="0.65"/>
<circle cx="814.5" cy="477.7" r="4" fill="#C53D43" fill-opacity="0.65"/>
<circle cx="896.7" cy="480.3" r="4" fill="#C53D43" fill-opacity="0.65"/>
<circle cx="549.9" cy="481.5" r="4" fill="#C53D43" fill-opacity="0.65"/>
<circle cx="679.3" cy="483.3" r="4" fill="#C53D43" fill-opacity="0.65"/>
<circle cx="785.9" cy="483.9" r="4" fill="#C53D43" fill-opacity="0.65"/>
<circle cx="855.7" cy="484.5" r="4" fill="#C53D43" fill-opacity="0.65"/>
<circle cx="726.7" cy="485.9" r="4" fill="#C53D43" fill-opacity="0.65"/>
<circle cx="776.0" cy="486.2" r="4" fill="#C53D43" fill-opacity="0.65"/>
<circle cx="815.4" cy="486.7" r="4" fill="#C53D43" fill-opacity="0.65"/>
<circle cx="109.1" cy="457.6" r="4" fill="#3274A1" fill-opacity="0.65"/>
<circle cx="115.1" cy="459.6" r="4" fill="#3274A1" fill-opacity="0.65"/>
<circle cx="115.1" cy="459.6" r="4" fill="#3274A1" fill-opacity="0.65"/>
<circle cx="157.5" cy="461.4" r="4" fill="#3274A1" fill-opacity="0.65"/>
<circle cx="162.2" cy="462.9" r="4" fill="#3274A1" fill-opacity="0.65"/>
<circle cx="90.0" cy="465.7" r="4" fill="#3274A1" fill-opacity="0.65"/>
<circle cx="90.0" cy="465.7" r="4" fill="#3274A1" fill-opacity="0.65"/>
<circle cx="204.2" cy="466.2" r="4" fill="#3274A1" fill-opacity="0.65"/>
<circle cx="137.4" cy="466.4" r="4" fill="#3274A1" fill-opacity="0.65"/>
<circle cx="147.7" cy="469.4" r="4" fill="#3274A1" fill-opacity="0.65"/>
<circle cx="147.7" cy="469.4" r="4" fill="#3274A1" fill-opacity="0.65"/>
<circle cx="218.8" cy="470.4" r="4" fill="#3274A1" fill-opacity="0.65"/>
<circle cx="291.7" cy="470.7" r="4" fill="#3274A1" fill-opacity="0.65"/>
<circle cx="152.7" cy="470.7" r="4" fill="#3274A1" fill-opacity="0.65"/>
<circle cx="109.1" cy="471.1" r="4" fill="#3274A1" fill-opacity="0.65"/>
<circle cx="222.2" cy="471.3" r="4" fill="#3274A1" fill-opacity="0.65"/>
<circle cx="273.8" cy="471.6" r="4" fill="#3274A1" fill-opacity="0.65"/>
<circle cx="273.8" cy="471.6" r="4" fill="#3274A1" fill-opacity="0.65"/>
<circle cx="192.5" cy="471.6" r="4" fill="#3274A1" fill-opacity="0.65"/>
<circle cx="192.5" cy="471.6" r="4" fill="#3274A1" fill-opacity="0.65"/>
<circle cx="157.5" cy="472.0" r="4" fill="#3274A1" fill-opacity="0.65"/>
<circle cx="225.7" cy="472.2" r="4" fill="#3274A1" fill-opacity="0.65"/>
<circle cx="196.4" cy="472.6" r="4" fill="#3274A1" fill-opacity="0.65"/>
<circle cx="115.1" cy="472.6" r="4" fill="#3274A1" fill-opacity="0.65"/>
<circle cx="279.1" cy="473.0" r="4" fill="#3274A1" fill-opacity="0.65"/>
<circle cx="229.0" cy="473.1" r="4" fill="#3274A1" fill-opacity="0.65"/>
<circle cx="162.2" cy="473.3" r="4" fill="#3274A1" fill-opacity="0.65"/>
<circle cx="232.4" cy="473.9" r="4" fill="#3274A1" fill-opacity="0.65"/>
<circle cx="120.9" cy="474.1" r="4" fill="#3274A1" fill-opacity="0.65"/>
<circle cx="120.9" cy="474.1" r="4" fill="#3274A1" fill-opacity="0.65"/>
<circle cx="166.8" cy="474.4" r="4" fill="#3274A1" fill-opacity="0.65"/>
<circle cx="166.8" cy="474.4" r="4" fill="#3274A1" fill-opacity="0.65"/>
<circle cx="286.8" cy="474.9" r="4" fill="#3274A1" fill-opacity="0.65"/>
<circle cx="361.3" cy="475.1" r="4" fill="#3274A1" fill-opacity="0.65"/>
<circle cx="391.7" cy="475.6" r="4" fill="#3274A1" fill-opacity="0.65"/>
<circle cx="238.8" cy="475.6" r="4" fill="#3274A1" fill-opacity="0.65"/>
<circle cx="126.6" cy="475.6" r="4" fill="#3274A1" fill-opacity="0.65"/>
<circle cx="126.6" cy="475.6" r="4" fill="#3274A1" fill-opacity="0.65"/>
<circle cx="242.0" cy="476.3" r="4" fill="#3274A1" fill-opacity="0.65"/>
<circle cx="242.0" cy="476.3" r="4" fill="#3274A1" fill-opacity="0.65"/>
<circle cx="271.1" cy="476.9" r="4" fill="#3274A1" fill-opacity="0.65"/>
<circle cx="132.1" cy="476.9" r="4" fill="#3274A1" fill-opacity="0.65"/>
<circle cx="132.1" cy="476.9" r="4" fill="#3274A1" fill-opacity="0.65"/>
<circle cx="245.1" cy="477.1" r="4" fill="#3274A1" fill-opacity="0.65"/>
<circle cx="245.1" cy="477.1" r="4" fill="#3274A1" fill-opacity="0.65"/>
<circle cx="317.0" cy="477.2" r="4" fill="#3274A1" fill-opacity="0.65"/>
<circle cx="303.6" cy="479.0" r="4" fill="#3274A1" fill-opacity="0.65"/>
<circle cx="142.6" cy="479.4" r="4" fill="#3274A1" fill-opacity="0.65"/>
<circle cx="142.6" cy="479.4" r="4" fill="#3274A1" fill-opacity="0.65"/>
<circle cx="381.0" cy="479.8" r="4" fill="#3274A1" fill-opacity="0.65"/>
<circle cx="308.1" cy="480.0" r="4" fill="#3274A1" fill-opacity="0.65"/>
<circle cx="382.6" cy="480.2" r="4" fill="#3274A1" fill-opacity="0.65"/>
<circle cx="310.4" cy="480.5" r="4" fill="#3274A1" fill-opacity="0.65"/>
<circle cx="192.5" cy="480.5" r="4" fill="#3274A1" fill-opacity="0.65"/>
<circle cx="147.7" cy="480.5" r="4" fill="#3274A1" fill-opacity="0.65"/>
<circle cx="90.0" cy="480.5" r="4" fill="#3274A1" fill-opacity="0.65"/>
<circle cx="90.0" cy="480.5" r="4" fill="#3274A1" fill-opacity="0.65"/>
<circle cx="90.0" cy="480.5" r="4" fill="#3274A1" fill-opacity="0.65"/>
<circle cx="90.0" cy="480.5" r="4" fill="#3274A1" fill-opacity="0.65"/>
<circle cx="312.6" cy="481.0" r="4" fill="#3274A1" fill-opacity="0.65"/>
<circle cx="312.6" cy="481.0" r="4" fill="#3274A1" fill-opacity="0.65"/>
<circle cx="196.4" cy="481.4" r="4" fill="#3274A1" fill-opacity="0.65"/>
<circle cx="314.8" cy="481.5" r="4" fill="#3274A1" fill-opacity="0.65"/>
<circle cx="152.7" cy="481.6" r="4" fill="#3274A1" fill-opacity="0.65"/>
<circle cx="520.9" cy="481.7" r="4" fill="#3274A1" fill-opacity="0.65"/>
<circle cx="235.6" cy="481.9" r="4" fill="#3274A1" fill-opacity="0.65"/>
<circle cx="96.6" cy="481.9" r="4" fill="#3274A1" fill-opacity="0.65"/>
<circle cx="96.6" cy="481.9" r="4" fill="#3274A1" fill-opacity="0.65"/>
<circle cx="376.3" cy="482.3" r="4" fill="#3274A1" fill-opacity="0.65"/>
<circle cx="268.4" cy="482.3" r="4" fill="#3274A1" fill-opacity="0.65"/>
<circle cx="435.6" cy="482.6" r="4" fill="#3274A1" fill-opacity="0.65"/>
<circle cx="394.7" cy="482.8" r="4" fill="#3274A1" fill-opacity="0.65"/>
<circle cx="517.7" cy="482.8" r="4" fill="#3274A1" fill-opacity="0.65"/>
<circle cx="321.2" cy="482.8" r="4" fill="#3274A1" fill-opacity="0.65"/>
<circle cx="556.5" cy="483.0" r="4" fill="#3274A1" fill-opacity="0.65"/>
<circle cx="204.2" cy="483.0" r="4" fill="#3274A1" fill-opacity="0.65"/>
<circle cx="204.2" cy="483.0" r="4" fill="#3274A1" fill-opacity="0.65"/>
<circle cx="102.9" cy="483.3" r="4" fill="#3274A1" fill-opacity="0.65"/>
<circle cx="102.9" cy="483.3" r="4" fill="#3274A1" fill-opacity="0.65"/>
<circle cx="102.9" cy="483.3" r="4" fill="#3274A1" fill-opacity="0.65"/>
<circle cx="102.9" cy="483.3" r="4" fill="#3274A1" fill-opacity="0.65"/>
<circle cx="364.7" cy="483.5" r="4" fill="#3274A1" fill-opacity="0.65"/>
<circle cx="162.2" cy="483.6" r="4" fill="#3274A1" fill-opacity="0.65"/>
<circle cx="303.6" cy="484.1" r="4" fill="#3274A1" fill-opacity="0.65"/>
<circle cx="587.9" cy="484.1" r="4" fill="#3274A1" fill-opacity="0.65"/>
<circle cx="248.2" cy="484.5" r="4" fill="#3274A1" fill-opacity="0.65"/>
<circle cx="248.2" cy="484.5" r="4" fill="#3274A1" fill-opacity="0.65"/>
<circle cx="211.6" cy="484.5" r="4" fill="#3274A1" fill-opacity="0.65"/>
<circle cx="166.8" cy="484.5" r="4" fill="#3274A1" fill-opacity="0.65"/>
<circle cx="109.1" cy="484.5" r="4" fill="#3274A1" fill-opacity="0.65"/>
<circle cx="109.1" cy="484.5" r="4" fill="#3274A1" fill-opacity="0.65"/>
<circle cx="543.7" cy="484.8" r="4" fill="#3274A1" fill-opacity="0.65"/>
<circle cx="615.1" cy="484.9" r="4" fill="#3274A1" fill-opacity="0.65"/>
<circle cx="215.2" cy="485.3" r="4" fill="#3274A1" fill-opacity="0.65"/>
<circle cx="594.5" cy="485.4" r="4" fill="#3274A1" fill-opacity="0.65"/>
<circle cx="438.0" cy="485.7" r="4" fill="#3274A1" fill-opacity="0.65"/>
<circle cx="115.1" cy="485.7" r="4" fill="#3274A1" fill-opacity="0.65"/>
<circle cx="115.1" cy="485.7" r="4" fill="#3274A1" fill-opacity="0.65"/>
<circle cx="312.6" cy="485.9" r="4" fill="#3274A1" fill-opacity="0.65"/>
<circle cx="257.1" cy="486.3" r="4" fill="#3274A1" fill-opacity="0.65"/>
<circle cx="175.7" cy="486.3" r="4" fill="#3274A1" fill-opacity="0.65"/>
<circle cx="175.7" cy="486.3" r="4" fill="#3274A1" fill-opacity="0.65"/>
<circle cx="650.3" cy="486.9" r="4" fill="#3274A1" fill-opacity="0.65"/>
<circle cx="260.0" cy="486.9" r="4" fill="#3274A1" fill-opacity="0.65"/>
<circle cx="120.9" cy="486.9" r="4" fill="#3274A1" fill-opacity="0.65"/>
<circle cx="120.9" cy="486.9" r="4" fill="#3274A1" fill-opacity="0.65"/>
<circle cx="567.3" cy="487.9" r="4" fill="#3274A1" fill-opacity="0.65"/>
<circle cx="229.0" cy="487.9" r="4" fill="#3274A1" fill-opacity="0.65"/>
<circle cx="229.0" cy="487.9" r="4" fill="#3274A1" fill-opacity="0.65"/>
<circle cx="184.3" cy="487.9" r="4" fill="#3274A1" fill-opacity="0.65"/>
<circle cx="596.7" cy="488.2" r="4" fill="#3274A1" fill-opacity="0.65"/>
<circle cx="767.6" cy="488.5" r="4" fill="#3274A1" fill-opacity="0.65"/>
<circle cx="424.5" cy="488.6" r="4" fill="#3274A1" fill-opacity="0.65"/>
<circle cx="490.6" cy="488.8" r="4" fill="#3274A1" fill-opacity="0.65"/>
<circle cx="271.1" cy="488.9" r="4" fill="#3274A1" fill-opacity="0.65"/>
<circle cx="557.8" cy="489.0" r="4" fill="#3274A1" fill-opacity="0.65"/>
<circle cx="608.1" cy="489.1" r="4" fill="#3274A1" fill-opacity="0.65"/>
<circle cx="470.6" cy="489.4" r="4" fill="#3274A1" fill-opacity="0.65"/>
<circle cx="376.3" cy="489.4" r="4" fill="#3274A1" fill-opacity="0.65"/>
<circle cx="376.3" cy="489.4" r="4" fill="#3274A1" fill-opacity="0.65"/>
<circle cx="333.5" cy="489.8" r="4" fill="#3274A1" fill-opacity="0.65"/>
<circle cx="137.4" cy="489.9" r="4" fill="#3274A1" fill-opacity="0.65"/>
<circle cx="137.4" cy="489.9" r="4" fill="#3274A1" fill-opacity="0.65"/>
<circle cx="473.6" cy="489.9" r="4" fill="#3274A1" fill-opacity="0.65"/>
<circle cx="196.4" cy="490.1" r="4" fill="#3274A1" fill-opacity="0.65"/>
<circle cx="196.4" cy="490.1" r="4" fill="#3274A1" fill-opacity="0.65"/>
<circle cx="279.1" cy="490.3" r="4" fill="#3274A1" fill-opacity="0.65"/>
<circle cx="310.4" cy="490.4" r="4" fill="#3274A1" fill-opacity="0.65"/>
<circle cx="512.1" cy="490.6" r="4" fill="#3274A1" fill-opacity="0.65"/>
<circle cx="384.2" cy="490.8" r="4" fill="#3274A1" fill-opacity="0.65"/>
<circle cx="142.6" cy="490.8" r="4" fill="#3274A1" fill-opacity="0.65"/>
<circle cx="422.0" cy="491.0" r="4" fill="#3274A1" fill-opacity="0.65"/>
<circle cx="467.5" cy="491.1" r="4" fill="#3274A1" fill-opacity="0.65"/>
<circle cx="314.8" cy="491.1" r="4" fill="#3274A1" fill-opacity="0.65"/>
<circle cx="387.2" cy="491.3" r="4" fill="#3274A1" fill-opacity="0.65"/>
<circle cx="248.2" cy="491.3" r="4" fill="#3274A1" fill-opacity="0.65"/>
<circle cx="248.2" cy="491.3" r="4" fill="#3274A1" fill-opacity="0.65"/>
<circle cx="366.4" cy="491.3" r="4" fill="#3274A1" fill-opacity="0.65"/>
<circle cx="579.4" cy="491.4" r="4" fill="#3274A1" fill-opacity="0.65"/>
<circle cx="408.8" cy="491.7" r="4" fill="#3274A1" fill-opacity="0.65"/>
<circle cx="458.2" cy="491.9" r="4" fill="#3274A1" fill-opacity="0.65"/>
<circle cx="410.2" cy="491.9" r="4" fill="#3274A1" fill-opacity="0.65"/>
<circle cx="391.7" cy="492.0" r="4" fill="#3274A1" fill-opacity="0.65"/>
<circle cx="289.3" cy="492.0" r="4" fill="#3274A1" fill-opacity="0.65"/>
<circle cx="207.9" cy="492.0" r="4" fill="#3274A1" fill-opacity="0.65"/>
<circle cx="559.1" cy="492.1" r="4" fill="#3274A1" fill-opacity="0.65"/>
<circle cx="321.2" cy="492.2" r="4" fill="#3274A1" fill-opacity="0.65"/>
<circle cx="429.5" cy="492.2" r="4" fill="#3274A1" fill-opacity="0.65"/>
<circle cx="373.0" cy="492.4" r="4" fill="#3274A1" fill-opacity="0.65"/>
<circle cx="291.7" cy="492.4" r="4" fill="#3274A1" fill-opacity="0.65"/>
<circle cx="152.7" cy="492.4" r="4" fill="#3274A1" fill-opacity="0.65"/>
<circle cx="152.7" cy="492.4" r="4" fill="#3274A1" fill-opacity="0.65"/>
<circle cx="462.4" cy="492.6" r="4" fill="#3274A1" fill-opacity="0.65"/>
<circle cx="211.6" cy="492.6" r="4" fill="#3274A1" fill-opacity="0.65"/>
<circle cx="448.3" cy="492.7" r="4" fill="#3274A1" fill-opacity="0.65"/>
<circle cx="327.5" cy="493.2" r="4" fill="#3274A1" fill-opacity="0.65"/>
<circle cx="215.2" cy="493.2" r="4" fill="#3274A1" fill-opacity="0.65"/>
<circle cx="157.5" cy="493.2" r="4" fill="#3274A1" fill-opacity="0.65"/>
<circle cx="356.0" cy="493.5" r="4" fill="#3274A1" fill-opacity="0.65"/>
<circle cx="301.3" cy="494.0" r="4" fill="#3274A1" fill-opacity="0.65"/>
<circle cx="222.2" cy="494.3" r="4" fill="#3274A1" fill-opacity="0.65"/>
<circle cx="222.2" cy="494.3" r="4" fill="#3274A1" fill-opacity="0.65"/>
<circle cx="564.9" cy="494.4" r="4" fill="#3274A1" fill-opacity="0.65"/>
<circle cx="166.8" cy="494.7" r="4" fill="#3274A1" fill-opacity="0.65"/>
<circle cx="166.8" cy="494.7" r="4" fill="#3274A1" fill-opacity="0.65"/>
<circle cx="166.8" cy="494.7" r="4" fill="#3274A1" fill-opacity="0.65"/>
<circle cx="225.7" cy="494.8" r="4" fill="#3274A1" fill-opacity="0.65"/>
<circle cx="225.7" cy="494.8" r="4" fill="#3274A1" fill-opacity="0.65"/>
<circle cx="339.4" cy="495.0" r="4" fill="#3274A1" fill-opacity="0.65"/>
<circle cx="841.7" cy="495.3" r="4" fill="#3274A1" fill-opacity="0.65"/>
<circle cx="412.9" cy="495.3" r="4" fill="#3274A1" fill-opacity="0.65"/>
<circle cx="310.4" cy="495.3" r="4" fill="#3274A1" fill-opacity="0.65"/>
<circle cx="310.4" cy="495.3" r="4" fill="#3274A1" fill-opacity="0.65"/>
<circle cx="273.8" cy="495.3" r="4" fill="#3274A1" fill-opacity="0.65"/>
<circle cx="273.8" cy="495.3" r="4" fill="#3274A1" fill-opacity="0.65"/>
<circle cx="229.0" cy="495.3" r="4" fill="#3274A1" fill-opacity="0.65"/>
<circle cx="171.3" cy="495.3" r="4" fill="#3274A1" fill-opacity="0.65"/>
<circle cx="171.3" cy="495.3" r="4" fill="#3274A1" fill-opacity="0.65"/>
<circle cx="90.0" cy="495.3" r="4" fill="#3274A1" fill-opacity="0.65"/>
<circle cx="90.0" cy="495.3" r="4" fill="#3274A1" fill-opacity="0.65"/>
<circle cx="90.0" cy="495.3" r="4" fill="#3274A1" fill-opacity="0.65"/>
<circle cx="481.3" cy="495.5" r="4" fill="#3274A1" fill-opacity="0.65"/>
<circle cx="450.5" cy="495.5" r="4" fill="#3274A1" fill-opacity="0.65"/>
<circle cx="312.6" cy="495.7" r="4" fill="#3274A1" fill-opacity="0.65"/>
<circle cx="232.4" cy="495.8" r="4" fill="#3274A1" fill-opacity="0.65"/>
<circle cx="314.8" cy="496.0" r="4" fill="#3274A1" fill-opacity="0.65"/>
<circle cx="175.7" cy="496.0" r="4" fill="#3274A1" fill-opacity="0.65"/>
<circle cx="436.8" cy="496.0" r="4" fill="#3274A1" fill-opacity="0.65"/>
<circle cx="419.4" cy="496.3" r="4" fill="#3274A1" fill-opacity="0.65"/>
<circle cx="235.6" cy="496.3" r="4" fill="#3274A1" fill-opacity="0.65"/>
<circle cx="96.6" cy="496.3" r="4" fill="#3274A1" fill-opacity="0.65"/>
<circle cx="238.8" cy="496.7" r="4" fill="#3274A1" fill-opacity="0.65"/>
<circle cx="238.8" cy="496.7" r="4" fill="#3274A1" fill-opacity="0.65"/>
<circle cx="238.8" cy="496.7" r="4" fill="#3274A1" fill-opacity="0.65"/>
<circle cx="284.2" cy="496.8" r="4" fill="#3274A1" fill-opacity="0.65"/>
<circle cx="424.5" cy="497.0" r="4" fill="#3274A1" fill-opacity="0.65"/>
<circle cx="478.4" cy="497.2" r="4" fill="#3274A1" fill-opacity="0.65"/>
<circle cx="242.0" cy="497.2" r="4" fill="#3274A1" fill-opacity="0.65"/>
<circle cx="508.8" cy="497.4" r="4" fill="#3274A1" fill-opacity="0.65"/>
<circle cx="464.5" cy="497.5" r="4" fill="#3274A1" fill-opacity="0.65"/>
<circle cx="701.1" cy="497.5" r="4" fill="#3274A1" fill-opacity="0.65"/>
<circle cx="245.1" cy="497.6" r="4" fill="#3274A1" fill-opacity="0.65"/>
<circle cx="838.5" cy="497.6" r="4" fill="#3274A1" fill-opacity="0.65"/>
<circle cx="484.1" cy="498.0" r="4" fill="#3274A1" fill-opacity="0.65"/>
<circle cx="329.5" cy="498.0" r="4" fill="#3274A1" fill-opacity="0.65"/>
<circle cx="192.5" cy="498.3" r="4" fill="#3274A1" fill-opacity="0.65"/>
<circle cx="251.2" cy="498.4" r="4" fill="#3274A1" fill-opacity="0.65"/>
<circle cx="391.7" cy="498.6" r="4" fill="#3274A1" fill-opacity="0.65"/>
<circle cx="196.4" cy="498.8" r="4" fill="#3274A1" fill-opacity="0.65"/>
<circle cx="196.4" cy="498.8" r="4" fill="#3274A1" fill-opacity="0.65"/>
<circle cx="115.1" cy="498.8" r="4" fill="#3274A1" fill-opacity="0.65"/>
<circle cx="115.1" cy="498.8" r="4" fill="#3274A1" fill-opacity="0.65"/>
<circle cx="337.5" cy="499.1" r="4" fill="#3274A1" fill-opacity="0.65"/>
<circle cx="654.0" cy="499.1" r="4" fill="#3274A1" fill-opacity="0.65"/>
<circle cx="200.3" cy="499.3" r="4" fill="#3274A1" fill-opacity="0.65"/>
<circle cx="371.4" cy="499.5" r="4" fill="#3274A1" fill-opacity="0.65"/>
<circle cx="341.3" cy="499.6" r="4" fill="#3274A1" fill-opacity="0.65"/>
<circle cx="120.9" cy="499.6" r="4" fill="#3274A1" fill-opacity="0.65"/>
<circle cx="120.9" cy="499.6" r="4" fill="#3274A1" fill-opacity="0.65"/>
<circle cx="120.9" cy="499.6" r="4" fill="#3274A1" fill-opacity="0.65"/>
<circle cx="120.9" cy="499.6" r="4" fill="#3274A1" fill-opacity="0.65"/>
<circle cx="373.0" cy="499.7" r="4" fill="#3274A1" fill-opacity="0.65"/>
<circle cx="305.9" cy="499.7" r="4" fill="#3274A1" fill-opacity="0.65"/>
<circle cx="563.0" cy="499.7" r="4" fill="#3274A1" fill-opacity="0.65"/>
<circle cx="262.8" cy="499.9" r="4" fill="#3274A1" fill-opacity="0.65"/>
<circle cx="425.8" cy="500.0" r="4" fill="#3274A1" fill-opacity="0.65"/>
<circle cx="345.1" cy="500.0" r="4" fill="#3274A1" fill-opacity="0.65"/>
<circle cx="345.1" cy="500.0" r="4" fill="#3274A1" fill-opacity="0.65"/>
<circle cx="802.1" cy="500.3" r="4" fill="#3274A1" fill-opacity="0.65"/>
<circle cx="207.9" cy="500.3" r="4" fill="#3274A1" fill-opacity="0.65"/>
<circle cx="207.9" cy="500.3" r="4" fill="#3274A1" fill-opacity="0.65"/>
<circle cx="126.6" cy="500.3" r="4" fill="#3274A1" fill-opacity="0.65"/>
<circle cx="126.6" cy="500.3" r="4" fill="#3274A1" fill-opacity="0.65"/>
<circle cx="649.9" cy="500.4" r="4" fill="#3274A1" fill-opacity="0.65"/>
<circle cx="379.5" cy="500.5" r="4" fill="#3274A1" fill-opacity="0.65"/>
<circle cx="350.6" cy="500.7" r="4" fill="#3274A1" fill-opacity="0.65"/>
<circle cx="521.7" cy="500.9" r="4" fill="#3274A1" fill-opacity="0.65"/>
<circle cx="132.1" cy="500.9" r="4" fill="#3274A1" fill-opacity="0.65"/>
<circle cx="816.2" cy="501.2" r="4" fill="#3274A1" fill-opacity="0.65"/>
<circle cx="215.2" cy="501.2" r="4" fill="#3274A1" fill-opacity="0.65"/>
<circle cx="215.2" cy="501.2" r="4" fill="#3274A1" fill-opacity="0.65"/>
<circle cx="551.2" cy="501.2" r="4" fill="#3274A1" fill-opacity="0.65"/>
<circle cx="273.8" cy="501.3" r="4" fill="#3274A1" fill-opacity="0.65"/>
<circle cx="436.8" cy="501.3" r="4" fill="#3274A1" fill-opacity="0.65"/>
<circle cx="910.0" cy="501.4" r="4" fill="#3274A1" fill-opacity="0.65"/>
<circle cx="438.0" cy="501.4" r="4" fill="#3274A1" fill-opacity="0.65"/>
<circle cx="893.4" cy="501.5" r="4" fill="#3274A1" fill-opacity="0.65"/>
<circle cx="357.8" cy="501.6" r="4" fill="#3274A1" fill-opacity="0.65"/>
<circle cx="276.5" cy="501.6" r="4" fill="#3274A1" fill-opacity="0.65"/>
<circle cx="218.8" cy="501.6" r="4" fill="#3274A1" fill-opacity="0.65"/>
<circle cx="137.4" cy="501.6" r="4" fill="#3274A1" fill-opacity="0.65"/>
<circle cx="222.2" cy="502.0" r="4" fill="#3274A1" fill-opacity="0.65"/>
<circle cx="464.5" cy="502.1" r="4" fill="#3274A1" fill-opacity="0.65"/>
<circle cx="142.6" cy="502.2" r="4" fill="#3274A1" fill-opacity="0.65"/>
<circle cx="142.6" cy="502.2" r="4" fill="#3274A1" fill-opacity="0.65"/>
<circle cx="142.6" cy="502.2" r="4" fill="#3274A1" fill-opacity="0.65"/>
<circle cx="142.6" cy="502.2" r="4" fill="#3274A1" fill-opacity="0.65"/>
<circle cx="444.9" cy="502.2" r="4" fill="#3274A1" fill-opacity="0.65"/>
<circle cx="225.7" cy="502.4" r="4" fill="#3274A1" fill-opacity="0.65"/>
<circle cx="467.5" cy="502.4" r="4" fill="#3274A1" fill-opacity="0.65"/>
<circle cx="467.5" cy="502.4" r="4" fill="#3274A1" fill-opacity="0.65"/>
<circle cx="720.2" cy="502.6" r="4" fill="#3274A1" fill-opacity="0.65"/>
<circle cx="147.7" cy="502.8" r="4" fill="#3274A1" fill-opacity="0.65"/>
<circle cx="147.7" cy="502.8" r="4" fill="#3274A1" fill-opacity="0.65"/>
<circle cx="147.7" cy="502.8" r="4" fill="#3274A1" fill-opacity="0.65"/>
<circle cx="147.7" cy="502.8" r="4" fill="#3274A1" fill-opacity="0.65"/>
<circle cx="147.7" cy="502.8" r="4" fill="#3274A1" fill-opacity="0.65"/>
<circle cx="147.7" cy="502.8" r="4" fill="#3274A1" fill-opacity="0.65"/>
<circle cx="630.6" cy="503.0" r="4" fill="#3274A1" fill-opacity="0.65"/>
<circle cx="451.7" cy="503.0" r="4" fill="#3274A1" fill-opacity="0.65"/>
<circle cx="371.4" cy="503.1" r="4" fill="#3274A1" fill-opacity="0.65"/>
<circle cx="232.4" cy="503.1" r="4" fill="#3274A1" fill-opacity="0.65"/>
<circle cx="493.3" cy="503.1" r="4" fill="#3274A1" fill-opacity="0.65"/>
<circle cx="569.8" cy="503.3" r="4" fill="#3274A1" fill-opacity="0.65"/>
<circle cx="373.0" cy="503.3" r="4" fill="#3274A1" fill-opacity="0.65"/>
<circle cx="291.7" cy="503.3" r="4" fill="#3274A1" fill-opacity="0.65"/>
<circle cx="152.7" cy="503.3" r="4" fill="#3274A1" fill-opacity="0.65"/>
<circle cx="152.7" cy="503.3" r="4" fill="#3274A1" fill-opacity="0.65"/>
<circle cx="454.9" cy="503.4" r="4" fill="#3274A1" fill-opacity="0.65"/>
<circle cx="235.6" cy="503.5" r="4" fill="#3274A1" fill-opacity="0.65"/>
<circle cx="596.1" cy="503.6" r="4" fill="#3274A1" fill-opacity="0.65"/>
<circle cx="711.6" cy="503.6" r="4" fill="#3274A1" fill-opacity="0.65"/>
<circle cx="561.7" cy="503.8" r="4" fill="#3274A1" fill-opacity="0.65"/>
<circle cx="341.3" cy="503.8" r="4" fill="#3274A1" fill-opacity="0.65"/>
<circle cx="157.5" cy="503.8" r="4" fill="#3274A1" fill-opacity="0.65"/>
<circle cx="157.5" cy="503.8" r="4" fill="#3274A1" fill-opacity="0.65"/>
<circle cx="157.5" cy="503.8" r="4" fill="#3274A1" fill-opacity="0.65"/>
<circle cx="518.5" cy="504.0" r="4" fill="#3274A1" fill-opacity="0.65"/>
<circle cx="438.0" cy="504.1" r="4" fill="#3274A1" fill-opacity="0.65"/>
<circle cx="162.2" cy="504.3" r="4" fill="#3274A1" fill-opacity="0.65"/>
<circle cx="347.0" cy="504.4" r="4" fill="#3274A1" fill-opacity="0.65"/>
<circle cx="303.6" cy="504.5" r="4" fill="#3274A1" fill-opacity="0.65"/>
<circle cx="466.5" cy="504.6" r="4" fill="#3274A1" fill-opacity="0.65"/>
<circle cx="248.2" cy="504.8" r="4" fill="#3274A1" fill-opacity="0.65"/>
<circle cx="166.8" cy="504.8" r="4" fill="#3274A1" fill-opacity="0.65"/>
<circle cx="308.1" cy="505.0" r="4" fill="#3274A1" fill-opacity="0.65"/>
<circle cx="512.1" cy="505.1" r="4" fill="#3274A1" fill-opacity="0.65"/>
<circle cx="310.4" cy="505.2" r="4" fill="#3274A1" fill-opacity="0.65"/>
<circle cx="171.3" cy="505.2" r="4" fill="#3274A1" fill-opacity="0.65"/>
<circle cx="254.2" cy="505.4" r="4" fill="#3274A1" fill-opacity="0.65"/>
<circle cx="254.2" cy="505.4" r="4" fill="#3274A1" fill-opacity="0.65"/>
<circle cx="424.5" cy="505.4" r="4" fill="#3274A1" fill-opacity="0.65"/>
<circle cx="705.8" cy="505.7" r="4" fill="#3274A1" fill-opacity="0.65"/>
<circle cx="571.0" cy="506.1" r="4" fill="#3274A1" fill-opacity="0.65"/>
<circle cx="662.2" cy="506.2" r="4" fill="#3274A1" fill-opacity="0.65"/>
<circle cx="434.4" cy="506.3" r="4" fill="#3274A1" fill-opacity="0.65"/>
<circle cx="368.1" cy="506.5" r="4" fill="#3274A1" fill-opacity="0.65"/>
<circle cx="265.6" cy="506.5" r="4" fill="#3274A1" fill-opacity="0.65"/>
<circle cx="265.6" cy="506.5" r="4" fill="#3274A1" fill-opacity="0.65"/>
<circle cx="184.3" cy="506.5" r="4" fill="#3274A1" fill-opacity="0.65"/>
<circle cx="184.3" cy="506.5" r="4" fill="#3274A1" fill-opacity="0.65"/>
<circle cx="325.4" cy="506.6" r="4" fill="#3274A1" fill-opacity="0.65"/>
<circle cx="325.4" cy="506.6" r="4" fill="#3274A1" fill-opacity="0.65"/>
<circle cx="268.4" cy="506.7" r="4" fill="#3274A1" fill-opacity="0.65"/>
<circle cx="268.4" cy="506.7" r="4" fill="#3274A1" fill-opacity="0.65"/>
<circle cx="604.5" cy="506.7" r="4" fill="#3274A1" fill-opacity="0.65"/>
<circle cx="408.8" cy="506.8" r="4" fill="#3274A1" fill-opacity="0.65"/>
<circle cx="327.5" cy="506.8" r="4" fill="#3274A1" fill-opacity="0.65"/>
<circle cx="327.5" cy="506.8" r="4" fill="#3274A1" fill-opacity="0.65"/>
<circle cx="410.2" cy="507.0" r="4" fill="#3274A1" fill-opacity="0.65"/>
<circle cx="271.1" cy="507.0" r="4" fill="#3274A1" fill-opacity="0.65"/>
<circle cx="192.5" cy="507.2" r="4" fill="#3274A1" fill-opacity="0.65"/>
<circle cx="192.5" cy="507.2" r="4" fill="#3274A1" fill-opacity="0.65"/>
<circle cx="552.6" cy="507.3" r="4" fill="#3274A1" fill-opacity="0.65"/>
<circle cx="377.9" cy="507.3" r="4" fill="#3274A1" fill-opacity="0.65"/>
<circle cx="379.5" cy="507.5" r="4" fill="#3274A1" fill-opacity="0.65"/>
<circle cx="586.8" cy="507.5" r="4" fill="#3274A1" fill-opacity="0.65"/>
<circle cx="196.4" cy="507.5" r="4" fill="#3274A1" fill-opacity="0.65"/>
<circle cx="381.0" cy="507.6" r="4" fill="#3274A1" fill-opacity="0.65"/>
<circle cx="279.1" cy="507.7" r="4" fill="#3274A1" fill-opacity="0.65"/>
<circle cx="337.5" cy="507.7" r="4" fill="#3274A1" fill-opacity="0.65"/>
<circle cx="382.6" cy="507.8" r="4" fill="#3274A1" fill-opacity="0.65"/>
<circle cx="384.2" cy="507.9" r="4" fill="#3274A1" fill-opacity="0.65"/>
<circle cx="200.3" cy="507.9" r="4" fill="#3274A1" fill-opacity="0.65"/>
<circle cx="663.8" cy="508.0" r="4" fill="#3274A1" fill-opacity="0.65"/>
<circle cx="423.3" cy="508.1" r="4" fill="#3274A1" fill-opacity="0.65"/>
<circle cx="284.2" cy="508.1" r="4" fill="#3274A1" fill-opacity="0.65"/>
<circle cx="387.2" cy="508.1" r="4" fill="#3274A1" fill-opacity="0.65"/>
<circle cx="204.2" cy="508.2" r="4" fill="#3274A1" fill-opacity="0.65"/>
<circle cx="425.8" cy="508.3" r="4" fill="#3274A1" fill-opacity="0.65"/>
<circle cx="286.8" cy="508.3" r="4" fill="#3274A1" fill-opacity="0.65"/>
<circle cx="286.8" cy="508.3" r="4" fill="#3274A1" fill-opacity="0.65"/>
<circle cx="347.0" cy="508.5" r="4" fill="#3274A1" fill-opacity="0.65"/>
<circle cx="291.7" cy="508.7" r="4" fill="#3274A1" fill-opacity="0.65"/>
<circle cx="211.6" cy="508.8" r="4" fill="#3274A1" fill-opacity="0.65"/>
<circle cx="294.1" cy="508.9" r="4" fill="#3274A1" fill-opacity="0.65"/>
<circle cx="574.0" cy="509.1" r="4" fill="#3274A1" fill-opacity="0.65"/>
<circle cx="435.6" cy="509.1" r="4" fill="#3274A1" fill-opacity="0.65"/>
<circle cx="215.2" cy="509.1" r="4" fill="#3274A1" fill-opacity="0.65"/>
<circle cx="400.4" cy="509.2" r="4" fill="#3274A1" fill-opacity="0.65"/>
<circle cx="298.9" cy="509.3" r="4" fill="#3274A1" fill-opacity="0.65"/>
<circle cx="218.8" cy="509.4" r="4" fill="#3274A1" fill-opacity="0.65"/>
<circle cx="218.8" cy="509.4" r="4" fill="#3274A1" fill-opacity="0.65"/>
<circle cx="218.8" cy="509.4" r="4" fill="#3274A1" fill-opacity="0.65"/>
<circle cx="472.6" cy="509.6" r="4" fill="#3274A1" fill-opacity="0.65"/>
<circle cx="581.7" cy="509.7" r="4" fill="#3274A1" fill-opacity="0.65"/>
<circle cx="222.2" cy="509.7" r="4" fill="#3274A1" fill-opacity="0.65"/>
<circle cx="222.2" cy="509.7" r="4" fill="#3274A1" fill-opacity="0.65"/>
<circle cx="407.4" cy="509.8" r="4" fill="#3274A1" fill-opacity="0.65"/>
<circle cx="363.0" cy="509.8" r="4" fill="#3274A1" fill-opacity="0.65"/>
<circle cx="225.7" cy="509.9" r="4" fill="#3274A1" fill-opacity="0.65"/>
<circle cx="225.7" cy="509.9" r="4" fill="#3274A1" fill-opacity="0.65"/>
<circle cx="225.7" cy="509.9" r="4" fill="#3274A1" fill-opacity="0.65"/>
<circle cx="90.0" cy="510.2" r="4" fill="#3274A1" fill-opacity="0.65"/>
<circle cx="90.0" cy="510.2" r="4" fill="#3274A1" fill-opacity="0.65"/>
<circle cx="90.0" cy="510.2" r="4" fill="#3274A1" fill-opacity="0.65"/>
<circle cx="90.0" cy="510.2" r="4" fill="#3274A1" fill-opacity="0.65"/>
<circle cx="90.0" cy="510.2" r="4" fill="#3274A1" fill-opacity="0.65"/>
<circle cx="90.0" cy="510.2" r="4" fill="#3274A1" fill-opacity="0.65"/>
<circle cx="90.0" cy="510.2" r="4" fill="#3274A1" fill-opacity="0.65"/>
<circle cx="90.0" cy="510.2" r="4" fill="#3274A1" fill-opacity="0.65"/>
<circle cx="312.6" cy="510.3" r="4" fill="#3274A1" fill-opacity="0.65"/>
<circle cx="232.4" cy="510.4" r="4" fill="#3274A1" fill-opacity="0.65"/>
<circle cx="232.4" cy="510.4" r="4" fill="#3274A1" fill-opacity="0.65"/>
<circle cx="513.7" cy="510.6" r="4" fill="#3274A1" fill-opacity="0.65"/>
<circle cx="374.7" cy="510.6" r="4" fill="#3274A1" fill-opacity="0.65"/>
<circle cx="317.0" cy="510.6" r="4" fill="#3274A1" fill-opacity="0.65"/>
<circle cx="235.6" cy="510.6" r="4" fill="#3274A1" fill-opacity="0.65"/>
<circle cx="96.6" cy="510.6" r="4" fill="#3274A1" fill-opacity="0.65"/>
<circle cx="96.6" cy="510.6" r="4" fill="#3274A1" fill-opacity="0.65"/>
<circle cx="96.6" cy="510.6" r="4" fill="#3274A1" fill-opacity="0.65"/>
<circle cx="96.6" cy="510.6" r="4" fill="#3274A1" fill-opacity="0.65"/>
<circle cx="96.6" cy="510.6" r="4" fill="#3274A1" fill-opacity="0.65"/>
<circle cx="96.6" cy="510.6" r="4" fill="#3274A1" fill-opacity="0.65"/>
<circle cx="96.6" cy="510.6" r="4" fill="#3274A1" fill-opacity="0.65"/>
<circle cx="319.1" cy="510.8" r="4" fill="#3274A1" fill-opacity="0.65"/>
<circle cx="422.0" cy="510.8" r="4" fill="#3274A1" fill-opacity="0.65"/>
<circle cx="377.9" cy="510.9" r="4" fill="#3274A1" fill-opacity="0.65"/>
<circle cx="242.0" cy="511.1" r="4" fill="#3274A1" fill-opacity="0.65"/>
<circle cx="102.9" cy="511.1" r="4" fill="#3274A1" fill-opacity="0.65"/>
<circle cx="102.9" cy="511.1" r="4" fill="#3274A1" fill-opacity="0.65"/>
<circle cx="102.9" cy="511.1" r="4" fill="#3274A1" fill-opacity="0.65"/>
<circle cx="248.2" cy="511.5" r="4" fill="#3274A1" fill-opacity="0.65"/>
<circle cx="248.2" cy="511.5" r="4" fill="#3274A1" fill-opacity="0.65"/>
<circle cx="109.1" cy="511.5" r="4" fill="#3274A1" fill-opacity="0.65"/>
<circle cx="109.1" cy="511.5" r="4" fill="#3274A1" fill-opacity="0.65"/>
<circle cx="251.2" cy="511.7" r="4" fill="#3274A1" fill-opacity="0.65"/>
<circle cx="115.1" cy="511.9" r="4" fill="#3274A1" fill-opacity="0.65"/>
<circle cx="115.1" cy="511.9" r="4" fill="#3274A1" fill-opacity="0.65"/>
<circle cx="337.5" cy="512.0" r="4" fill="#3274A1" fill-opacity="0.65"/>
<circle cx="337.5" cy="512.0" r="4" fill="#3274A1" fill-opacity="0.65"/>
<circle cx="257.1" cy="512.1" r="4" fill="#3274A1" fill-opacity="0.65"/>
<circle cx="120.9" cy="512.3" r="4" fill="#3274A1" fill-opacity="0.65"/>
<circle cx="120.9" cy="512.3" r="4" fill="#3274A1" fill-opacity="0.65"/>
<circle cx="120.9" cy="512.3" r="4" fill="#3274A1" fill-opacity="0.65"/>
<circle cx="120.9" cy="512.3" r="4" fill="#3274A1" fill-opacity="0.65"/>
<circle cx="120.9" cy="512.3" r="4" fill="#3274A1" fill-opacity="0.65"/>
<circle cx="262.8" cy="512.5" r="4" fill="#3274A1" fill-opacity="0.65"/>
<circle cx="265.6" cy="512.6" r="4" fill="#3274A1" fill-opacity="0.65"/>
<circle cx="126.6" cy="512.6" r="4" fill="#3274A1" fill-opacity="0.65"/>
<circle cx="126.6" cy="512.6" r="4" fill="#3274A1" fill-opacity="0.65"/>
<circle cx="132.1" cy="513.0" r="4" fill="#3274A1" fill-opacity="0.65"/>
<circle cx="132.1" cy="513.0" r="4" fill="#3274A1" fill-opacity="0.65"/>
<circle cx="132.1" cy="513.0" r="4" fill="#3274A1" fill-opacity="0.65"/>
<circle cx="132.1" cy="513.0" r="4" fill="#3274A1" fill-opacity="0.65"/>
<circle cx="137.4" cy="513.3" r="4" fill="#3274A1" fill-opacity="0.65"/>
<circle cx="137.4" cy="513.3" r="4" fill="#3274A1" fill-opacity="0.65"/>
<circle cx="137.4" cy="513.3" r="4" fill="#3274A1" fill-opacity="0.65"/>
<circle cx="416.8" cy="513.4" r="4" fill="#3274A1" fill-opacity="0.65"/>
<circle cx="600.9" cy="513.4" r="4" fill="#3274A1" fill-opacity="0.65"/>
<circle cx="530.0" cy="513.4" r="4" fill="#3274A1" fill-opacity="0.65"/>
<circle cx="281.7" cy="513.6" r="4" fill="#3274A1" fill-opacity="0.65"/>
<circle cx="142.6" cy="513.6" r="4" fill="#3274A1" fill-opacity="0.65"/>
<circle cx="142.6" cy="513.6" r="4" fill="#3274A1" fill-opacity="0.65"/>
<circle cx="284.2" cy="513.7" r="4" fill="#3274A1" fill-opacity="0.65"/>
<circle cx="147.7" cy="513.9" r="4" fill="#3274A1" fill-opacity="0.65"/>
<circle cx="147.7" cy="513.9" r="4" fill="#3274A1" fill-opacity="0.65"/>
<circle cx="430.8" cy="514.1" r="4" fill="#3274A1" fill-opacity="0.65"/>
<circle cx="152.7" cy="514.1" r="4" fill="#3274A1" fill-opacity="0.65"/>
<circle cx="152.7" cy="514.1" r="4" fill="#3274A1" fill-opacity="0.65"/>
<circle cx="294.1" cy="514.3" r="4" fill="#3274A1" fill-opacity="0.65"/>
<circle cx="294.1" cy="514.3" r="4" fill="#3274A1" fill-opacity="0.65"/>
<circle cx="157.5" cy="514.4" r="4" fill="#3274A1" fill-opacity="0.65"/>
<circle cx="157.5" cy="514.4" r="4" fill="#3274A1" fill-opacity="0.65"/>
<circle cx="436.8" cy="514.5" r="4" fill="#3274A1" fill-opacity="0.65"/>
<circle cx="162.2" cy="514.7" r="4" fill="#3274A1" fill-opacity="0.65"/>
<circle cx="166.8" cy="514.9" r="4" fill="#3274A1" fill-opacity="0.65"/>
<circle cx="166.8" cy="514.9" r="4" fill="#3274A1" fill-opacity="0.65"/>
<circle cx="308.1" cy="515.0" r="4" fill="#3274A1" fill-opacity="0.65"/>
<circle cx="171.3" cy="515.1" r="4" fill="#3274A1" fill-opacity="0.65"/>
<circle cx="171.3" cy="515.1" r="4" fill="#3274A1" fill-opacity="0.65"/>
<circle cx="171.3" cy="515.1" r="4" fill="#3274A1" fill-opacity="0.65"/>
<circle cx="171.3" cy="515.1" r="4" fill="#3274A1" fill-opacity="0.65"/>
<circle cx="171.3" cy="515.1" r="4" fill="#3274A1" fill-opacity="0.65"/>
<circle cx="653.2" cy="515.2" r="4" fill="#3274A1" fill-opacity="0.65"/>
<circle cx="175.7" cy="515.3" r="4" fill="#3274A1" fill-opacity="0.65"/>
<circle cx="175.7" cy="515.3" r="4" fill="#3274A1" fill-opacity="0.65"/>
<circle cx="175.7" cy="515.3" r="4" fill="#3274A1" fill-opacity="0.65"/>
<circle cx="175.7" cy="515.3" r="4" fill="#3274A1" fill-opacity="0.65"/>
<circle cx="397.6" cy="515.4" r="4" fill="#3274A1" fill-opacity="0.65"/>
<circle cx="180.1" cy="515.5" r="4" fill="#3274A1" fill-opacity="0.65"/>
<circle cx="401.9" cy="515.6" r="4" fill="#3274A1" fill-opacity="0.65"/>
<circle cx="188.4" cy="515.9" r="4" fill="#3274A1" fill-opacity="0.65"/>
<circle cx="329.5" cy="516.0" r="4" fill="#3274A1" fill-opacity="0.65"/>
<circle cx="469.6" cy="516.1" r="4" fill="#3274A1" fill-opacity="0.65"/>
<circle cx="331.5" cy="516.1" r="4" fill="#3274A1" fill-opacity="0.65"/>
<circle cx="335.5" cy="516.3" r="4" fill="#3274A1" fill-opacity="0.65"/>
<circle cx="337.5" cy="516.4" r="4" fill="#3274A1" fill-opacity="0.65"/>
<circle cx="204.2" cy="516.6" r="4" fill="#3274A1" fill-opacity="0.65"/>
<circle cx="204.2" cy="516.6" r="4" fill="#3274A1" fill-opacity="0.65"/>
<circle cx="204.2" cy="516.6" r="4" fill="#3274A1" fill-opacity="0.65"/>
<circle cx="347.0" cy="516.8" r="4" fill="#3274A1" fill-opacity="0.65"/>
<circle cx="207.9" cy="516.8" r="4" fill="#3274A1" fill-opacity="0.65"/>
<circle cx="211.6" cy="516.9" r="4" fill="#3274A1" fill-opacity="0.65"/>
<circle cx="215.2" cy="517.1" r="4" fill="#3274A1" fill-opacity="0.65"/>
<circle cx="364.7" cy="517.5" r="4" fill="#3274A1" fill-opacity="0.65"/>
<circle cx="229.0" cy="517.6" r="4" fill="#3274A1" fill-opacity="0.65"/>
<circle cx="229.0" cy="517.6" r="4" fill="#3274A1" fill-opacity="0.65"/>
<circle cx="371.4" cy="517.7" r="4" fill="#3274A1" fill-opacity="0.65"/>
<circle cx="235.6" cy="517.8" r="4" fill="#3274A1" fill-opacity="0.65"/>
<circle cx="235.6" cy="517.8" r="4" fill="#3274A1" fill-opacity="0.65"/>
<circle cx="242.0" cy="518.0" r="4" fill="#3274A1" fill-opacity="0.65"/>
<circle cx="245.1" cy="518.2" r="4" fill="#3274A1" fill-opacity="0.65"/>
<circle cx="245.1" cy="518.2" r="4" fill="#3274A1" fill-opacity="0.65"/>
<circle cx="466.5" cy="518.2" r="4" fill="#3274A1" fill-opacity="0.65"/>
<circle cx="387.2" cy="518.3" r="4" fill="#3274A1" fill-opacity="0.65"/>
<circle cx="251.2" cy="518.4" r="4" fill="#3274A1" fill-opacity="0.65"/>
<circle cx="533.0" cy="518.5" r="4" fill="#3274A1" fill-opacity="0.65"/>
<circle cx="265.6" cy="518.8" r="4" fill="#3274A1" fill-opacity="0.65"/>
<circle cx="406.1" cy="518.9" r="4" fill="#3274A1" fill-opacity="0.65"/>
<circle cx="271.1" cy="519.0" r="4" fill="#3274A1" fill-opacity="0.65"/>
<circle cx="276.5" cy="519.1" r="4" fill="#3274A1" fill-opacity="0.65"/>
<circle cx="279.1" cy="519.2" r="4" fill="#3274A1" fill-opacity="0.65"/>
<circle cx="281.7" cy="519.3" r="4" fill="#3274A1" fill-opacity="0.65"/>
<circle cx="284.2" cy="519.4" r="4" fill="#3274A1" fill-opacity="0.65"/>
<circle cx="294.1" cy="519.6" r="4" fill="#3274A1" fill-opacity="0.65"/>
<circle cx="305.9" cy="519.9" r="4" fill="#3274A1" fill-opacity="0.65"/>
<circle cx="319.1" cy="520.3" r="4" fill="#3274A1" fill-opacity="0.65"/>
<circle cx="327.5" cy="520.5" r="4" fill="#3274A1" fill-opacity="0.65"/>
<circle cx="343.2" cy="520.8" r="4" fill="#3274A1" fill-opacity="0.65"/>
<circle cx="343.2" cy="520.8" r="4" fill="#3274A1" fill-opacity="0.65"/>
<circle cx="488.8" cy="520.9" r="4" fill="#3274A1" fill-opacity="0.65"/>
<circle cx="354.3" cy="521.0" r="4" fill="#3274A1" fill-opacity="0.65"/>
<circle cx="384.2" cy="521.6" r="4" fill="#3274A1" fill-opacity="0.65"/>
<circle cx="388.7" cy="521.7" r="4" fill="#3274A1" fill-opacity="0.65"/>
<circle cx="352.5" cy="525.0" r="4" fill="#3274A1" fill-opacity="0.65"/>
<circle cx="312.6" cy="525.0" r="4" fill="#3274A1" fill-opacity="0.65"/>
<circle cx="305.9" cy="525.0" r="4" fill="#3274A1" fill-opacity="0.65"/>
<circle cx="301.3" cy="525.0" r="4" fill="#3274A1" fill-opacity="0.65"/>
<circle cx="245.1" cy="525.0" r="4" fill="#3274A1" fill-opacity="0.65"/>
<circle cx="242.0" cy="525.0" r="4" fill="#3274A1" fill-opacity="0.65"/>
<circle cx="238.8" cy="525.0" r="4" fill="#3274A1" fill-opacity="0.65"/>
<circle cx="229.0" cy="525.0" r="4" fill="#3274A1" fill-opacity="0.65"/>
<circle cx="229.0" cy="525.0" r="4" fill="#3274A1" fill-opacity="0.65"/>
<circle cx="218.8" cy="525.0" r="4" fill="#3274A1" fill-opacity="0.65"/>
<circle cx="211.6" cy="525.0" r="4" fill="#3274A1" fill-opacity="0.65"/>
<circle cx="200.3" cy="525.0" r="4" fill="#3274A1" fill-opacity="0.65"/>
<circle cx="196.4" cy="525.0" r="4" fill="#3274A1" fill-opacity="0.65"/>
<circle cx="196.4" cy="525.0" r="4" fill="#3274A1" fill-opacity="0.65"/>
<circle cx="188.4" cy="525.0" r="4" fill="#3274A1" fill-opacity="0.65"/>
<circle cx="180.1" cy="525.0" r="4" fill="#3274A1" fill-opacity="0.65"/>
<circle cx="171.3" cy="525.0" r="4" fill="#3274A1" fill-opacity="0.65"/>
<circle cx="171.3" cy="525.0" r="4" fill="#3274A1" fill-opacity="0.65"/>
<circle cx="162.2" cy="525.0" r="4" fill="#3274A1" fill-opacity="0.65"/>
<circle cx="162.2" cy="525.0" r="4" fill="#3274A1" fill-opacity="0.65"/>
<circle cx="157.5" cy="525.0" r="4" fill="#3274A1" fill-opacity="0.65"/>
<circle cx="157.5" cy="525.0" r="4" fill="#3274A1" fill-opacity="0.65"/>
<circle cx="147.7" cy="525.0" r="4" fill="#3274A1" fill-opacity="0.65"/>
<circle cx="142.6" cy="525.0" r="4" fill="#3274A1" fill-opacity="0.65"/>
<circle cx="137.4" cy="525.0" r="4" fill="#3274A1" fill-opacity="0.65"/>
<circle cx="126.6" cy="525.0" r="4" fill="#3274A1" fill-opacity="0.65"/>
<circle cx="126.6" cy="525.0" r="4" fill="#3274A1" fill-opacity="0.65"/>
<circle cx="120.9" cy="525.0" r="4" fill="#3274A1" fill-opacity="0.65"/>
<circle cx="120.9" cy="525.0" r="4" fill="#3274A1" fill-opacity="0.65"/>
<circle cx="115.1" cy="525.0" r="4" fill="#3274A1" fill-opacity="0.65"/>
<circle cx="109.1" cy="525.0" r="4" fill="#3274A1" fill-opacity="0.65"/>
<circle cx="109.1" cy="525.0" r="4" fill="#3274A1" fill-opacity="0.65"/>
<circle cx="109.1" cy="525.0" r="4" fill="#3274A1" fill-opacity="0.65"/>
<circle cx="109.1" cy="525.0" r="4" fill="#3274A1" fill-opacity="0.65"/>
<circle cx="109.1" cy="525.0" r="4" fill="#3274A1" fill-opacity="0.65"/>
<circle cx="109.1" cy="525.0" r="4" fill="#3274A1" fill-opacity="0.65"/>
<circle cx="102.9" cy="525.0" r="4" fill="#3274A1" fill-opacity="0.65"/>
<circle cx="96.6" cy="525.0" r="4" fill="#3274A1" fill-opacity="0.65"/>
<circle cx="96.6" cy="525.0" r="4" fill="#3274A1" fill-opacity="0.65"/>
<circle cx="96.6" cy="525.0" r="4" fill="#3274A1" fill-opacity="0.65"/>
<circle cx="90.0" cy="525.0" r="4" fill="#3274A1" fill-opacity="0.65"/>
<text x="90.0" y="553.0" text-anchor="middle" font-size="12" font-family="Arial" fill="#52606D">30</text>
<text x="331.5" y="553.0" text-anchor="middle" font-size="12" font-family="Arial" fill="#52606D">100</text>
<text x="551.9" y="553.0" text-anchor="middle" font-size="12" font-family="Arial" fill="#52606D">300</text>
<text x="793.4" y="553.0" text-anchor="middle" font-size="12" font-family="Arial" fill="#52606D">1000</text>
<text x="500.0" y="582.0" text-anchor="middle" font-size="13" font-family="Arial" fill="#334E68">Delivered orders (log scale)</text>
<text x="22.0" y="302.5" text-anchor="middle" font-size="13" font-family="Arial" fill="#334E68" transform="rotate(-90 22 302.5)">Late delivery rate</text>
</svg>