<svg xmlns="http://www.w3.org/2000/svg" width="1000" height="560" viewBox="0 0 1000 560">
<rect width="100%" height="100%" fill="#FFFFFF"/>
<text x="40.0" y="36.0" font-size="22" font-family="Arial" font-weight="bold" fill="#172B4D">On-time delivery rate by purchase month</text>
<line x1="90" y1="460.0" x2="970" y2="460.0" stroke="#D9E2EC"/>
<text x="78.0" y="465.0" text-anchor="end" font-size="12" font-family="Arial" fill="#52606D">0%</text>
<line x1="90" y1="382.0" x2="970" y2="382.0" stroke="#D9E2EC"/>
<text x="78.0" y="387.0" text-anchor="end" font-size="12" font-family="Arial" fill="#52606D">20%</text>
<line x1="90" y1="304.0" x2="970" y2="304.0" stroke="#D9E2EC"/>
<text x="78.0" y="309.0" text-anchor="end" font-size="12" font-family="Arial" fill="#52606D">40%</text>
<line x1="90" y1="226.0" x2="970" y2="226.0" stroke="#D9E2EC"/>
<text x="78.0" y="231.0" text-anchor="end" font-size="12" font-family="Arial" fill="#52606D">60%</text>
<line x1="90" y1="148.0" x2="970" y2="148.0" stroke="#D9E2EC"/>
<text x="78.0" y="153.0" text-anchor="end" font-size="12" font-family="Arial" fill="#52606D">80%</text>
<line x1="90" y1="70.0" x2="970" y2="70.0" stroke="#D9E2EC"/>
<text x="78.0" y="75.0" text-anchor="end" font-size="12" font-family="Arial" fill="#52606D">100%</text>
<text x="90.0" y="488.0" text-anchor="middle" font-size="11" font-family="Arial" fill="#52606D" transform="rotate(45 90.0 488.0)">2016-10</text>
<text x="178.0" y="488.0" text-anchor="middle" font-size="11" font-family="Arial" fill="#52606D" transform="rotate(45 178.0 488.0)">2017-02</text>
<text x="266.0" y="488.0" text-anchor="middle" font-size="11" font-family="Arial" fill="#52606D" transform="rotate(45 266.0 488.0)">2017-04</text>
<text x="354.0" y="488.0" text-anchor="middle" font-size="11" font-family="Arial" fill="#52606D" transform="rotate(45 354.0 488.0)">2017-06</text>
<text x="442.0" y="488.0" text-anchor="middle" font-size="11" font-family="Arial" fill="#52606D" transform="rotate(45 442.0 488.0)">2017-08</text>
<text x="530.0" y="488.0" text-anchor="middle" font-size="11" font-family="Arial" fill="#52606D" transform="rotate(45 530.0 488.0)">2017-10</text>
<text x="618.0" y="488.0" text-anchor="middle" font-size="11" font-family="Arial" fill="#52606D" transform="rotate(45 618.0 488.0)">2017-12</text>
<text x="706.0" y="488.0" text-anchor="middle" font-size="11" font-family="Arial" fill="#52606D" transform="rotate(45 706.0 488.0)">2018-02</text>
<text x="794.0" y="488.0" text-anchor="middle" font-size="11" font-family="Arial" fill="#52606D" transform="rotate(45 794.0 488.0)">2018-04</text>
<text x="882.0" y="488.0" text-anchor="middle" font-size="11" font-family="Arial" fill="#52606D" transform="rotate(45 882.0 488.0)">2018-06</text>
<text x="970.0" y="488.0" text-anchor="middle" font-size="11" font-family="Arial" fill="#52606D" transform="rotate(45 970.0 488.0)">2018-08</text>
<polyline points="90.0,73.0 134.0,81.5 178.0,81.6 222.0,87.8 266.0,95.6 310.0,81.8 354.0,81.9 398.0,81.1 442.0,81.4 486.0,87.3 530.0,86.5 574.0,118.9 618.0,99.2 662.0,92.6 706.0,125.5 750.0,144.7 794.0,87.9 838.0,96.0 882.0,74.6 926.0,83.4 970.0,94.6" fill="none" stroke="#1F77B4" stroke-width="3"/>
<circle cx="90.0" cy="73.0" r="4" fill="#1F77B4"/>
<circle cx="134.0" cy="81.5" r="4" fill="#1F77B4"/>
<circle cx="178.0" cy="81.6" r="4" fill="#1F77B4"/>
<circle cx="222.0" cy="87.8" r="4" fill="#1F77B4"/>
<circle cx="266.0" cy="95.6" r="4" fill="#1F77B4"/>
<circle cx="310.0" cy="81.8" r="4" fill="#1F77B4"/>
<circle cx="354.0" cy="81.9" r="4" fill="#1F77B4"/>
<circle cx="398.0" cy="81.1" r="4" fill="#1F77B4"/>
<circle cx="442.0" cy="81.4" r="4" fill="#1F77B4"/>
<circle cx="486.0" cy="87.3" r="4" fill="#1F77B4"/>
<circle cx="530.0" cy="86.5" r="4" fill="#1F77B4"/>
<circle cx="574.0" cy="118.9" r="4" fill="#1F77B4"/>
<circle cx="618.0" cy="99.2" r="4" fill="#1F77B4"/>
<circle cx="662.0" cy="92.6" r="4" fill="#1F77B4"/>
<circle cx="706.0" cy="125.5" r="4" fill="#1F77B4"/>
<circle cx="750.0" cy="144.7" r="4" fill="#1F77B4"/>
<circle cx="794.0" cy="87.9" r="4" fill="#1F77B4"/>
<circle cx="838.0" cy="96.0" r="4" fill="#1F77B4"/>
<circle cx="882.0" cy="74.6" r="4" fill="#1F77B4"/>
<circle cx="926.0" cy="83.4" r="4" fill="#1F77B4"/>
<circle cx="970.0" cy="94.6" r="4" fill="#1F77B4"/>
<text x="22.0" y="265.0" text-anchor="middle" font-size="13" font-family="Arial" fill="#334E68" transform="rotate(-90 22 265.0)">On-time delivery</text>
</svg>